<svg xmlns="http://www.w3.org/2000/svg" width="200" height="140" viewBox="0 0 200 140"><g transform="translate(-130 -544)"><path d="M48.462,79.4l32.192-45h58.154L103.5,86.4m0,0H52.615m50.885,0L74.423,20H93.635m68.746,59a6.9,6.9,0,1,0,7.165,6.9A7.036,7.036,0,0,0,162.381,79Zm0,0L139.327,34.4V20h21.288a7,7,0,1,1,0,14h-2.6M80.238,85.9c0,18.943-15.948,34.3-35.619,34.3S9,104.843,9,85.9,24.948,51.6,44.619,51.6,80.238,66.957,80.238,85.9ZM198,85.9c0,18.943-15.948,34.3-35.619,34.3s-35.619-15.357-35.619-34.3,15.948-34.3,35.619-34.3S198,66.957,198,85.9Zm-146.215,0A7.17,7.17,0,1,1,44.619,79a7.036,7.036,0,0,1,7.165,6.9Z" transform="translate(126.5 543.5)" fill="none" stroke="#fec74b" stroke-linecap="round" stroke-linejoin="round" stroke-miterlimit="10" stroke-width="4"/><path d="M0,0H200V140H0Z" transform="translate(130 544)" fill="none"/></g></svg>